<svg width="60" height="60" viewBox="0 0 60 60" fill="none" xmlns="http://www.w3.org/2000/svg">
<path fill-rule="evenodd" clip-rule="evenodd" d="M33.6964 37.342L34.8112 36.6693C35.2467 36.4126 35.6074 36.2208 35.9649 36.0648C38.4966 34.9436 40.7261 35.7366 43.6738 39.0873C45.5003 41.1608 46.0398 43.0035 45.3346 44.6447C44.8113 45.8667 43.8006 46.7117 42.0001 47.7582C41.8831 47.8232 40.8464 48.4082 40.5799 48.5707C36.3906 51.0829 26.7902 45.3305 19.884 35.4961C12.9616 25.6389 11.1676 15.1285 15.4121 12.5772L15.9743 12.2327L16.5821 11.8492C18.727 10.4973 20.1018 9.95776 21.73 10.2243C23.3582 10.4973 24.7427 11.6672 25.9127 13.7992C28.3827 18.3102 27.8367 20.4487 24.6615 22.3922C24.434 22.5352 23.6215 23.0097 23.5467 23.0584C22.7668 23.5264 24.0862 26.6659 27.151 31.0273C30.2514 35.4376 32.8449 37.8523 33.6932 37.342H33.6964Z" stroke="#222325" stroke-width="3"/>
</svg>
