<svg width="61" height="60" viewBox="0 0 61 60" fill="none" xmlns="http://www.w3.org/2000/svg">
<path fill-rule="evenodd" clip-rule="evenodd" d="M35.3446 32.5752C35.6235 32.7656 35.7607 31.7295 35.3446 31.5002C35.9194 31.3651 36.4526 30.2763 37.5669 29.3502C39.8435 26.8649 41.0721 24.0532 40.9004 20.7501C41.0721 14.8915 36.5179 10 30.9 10C25.282 10 20.7278 14.8915 20.8995 20.7501C20.7278 24.0532 21.9564 26.8649 24.233 29.3502C25.3473 30.2763 25.8806 31.3651 26.4553 31.5002C26.0392 31.7295 26.1776 32.7656 26.4553 32.5752C22.7102 38.3482 11.8208 40.2731 10.8991 44.4004C10.8645 45.3753 10.6958 48.5589 12.0103 48.7004C13.1338 48.5589 48.6661 48.5589 49.7897 48.7004C51.1041 48.5589 50.9354 45.3753 50.9008 44.4004C49.9791 40.2731 39.0909 38.3482 35.3446 32.5752Z" stroke="#222325" stroke-width="4" stroke-linejoin="round"/>
</svg>
